<svg xmlns="http://www.w3.org/2000/svg" width="44.16" height="35.35" viewBox="0 0 44.16 35.35">
  <defs>
    <style>
      .cls-1 {
        fill: #8e8d8d;
        fill-rule: evenodd;
      }
    </style>
  </defs>
  <path id="Camera_Icon" data-name="Camera Icon" class="cls-1" d="M1090.94,4644.18h38.27a2.938,2.938,0,0,1,2.94,2.94v23.55a2.938,2.938,0,0,1-2.94,2.94h-38.27a2.945,2.945,0,0,1-2.94-2.94v-23.55A2.945,2.945,0,0,1,1090.94,4644.18Zm19.14,4.41a9.935,9.935,0,1,1-9.94,9.94A9.938,9.938,0,0,1,1110.08,4648.59Zm-8.83-10.3h17.66a2.945,2.945,0,0,1,2.94,2.94v4.17a2.947,2.947,0,0,1-2.94,2.95h-17.66a2.949,2.949,0,0,1-2.95-2.95v-4.17A2.947,2.947,0,0,1,1101.25,4638.29Zm8.83,13.98a6.255,6.255,0,1,1-6.26,6.26A6.254,6.254,0,0,1,1110.08,4652.27Z" transform="translate(-1088 -4638.28)"/>
</svg>
