<svg xmlns="http://www.w3.org/2000/svg" width="47.56" height="47.53" viewBox="0 0 47.56 47.53">
  <defs>
    <style>
      .cls-1 {
        fill: #fff;
        fill-rule: evenodd;
      }
    </style>
  </defs>
  <path id="Icon_-_My_Location" data-name="Icon - My Location" class="cls-1" d="M1037.71,4128.12a16.87,16.87,0,1,1-16.87,16.87A16.866,16.866,0,0,1,1037.71,4128.12Zm0,3.16a13.705,13.705,0,1,1-13.7,13.71A13.712,13.712,0,0,1,1037.71,4131.28Zm-6.9,13.9a1.918,1.918,0,0,1-1.91,1.92h-13.04a1.92,1.92,0,1,1,0-3.84h13.04A1.918,1.918,0,0,1,1030.81,4145.18Zm30.68,0a1.92,1.92,0,0,1-1.92,1.92h-13.04a1.92,1.92,0,0,1,0-3.84h13.04A1.92,1.92,0,0,1,1061.49,4145.18Zm-23.78,6.9a1.92,1.92,0,0,1,1.92,1.92v13.03a1.915,1.915,0,1,1-3.83,0V4154A1.918,1.918,0,0,1,1037.71,4152.08Zm0-30.67a1.92,1.92,0,0,1,1.92,1.92v13.03a1.915,1.915,0,1,1-3.83,0v-13.03A1.918,1.918,0,0,1,1037.71,4121.41Z" transform="translate(-1013.94 -4121.41)"/>
</svg>
