<svg xmlns="http://www.w3.org/2000/svg" width="29.85" height="42.19" viewBox="0 0 29.85 42.19">
  <defs>
    <style>
      .cls-1 {
        fill: #fff;
        fill-rule: evenodd;
      }
    </style>
  </defs>
  <path id="Icon_-_Pin_" data-name="Icon - Pin " class="cls-1" d="M1118.97,4124.94a14.92,14.92,0,1,1-14.92,14.92A14.922,14.922,0,0,1,1118.97,4124.94Zm-8.13,9.49s-6.11.23-6.56,9.05a40.24,40.24,0,0,0,15.18,23.65v-33.15Zm16.27,0s6.11,0.23,6.56,9.05a40.226,40.226,0,0,1-15.19,23.65v-33.15Zm-7.99-.31a6.005,6.005,0,1,1-6.01,6A6,6,0,0,1,1119.12,4134.12Z" transform="translate(-1104.06 -4124.94)"/>
</svg>
