<?xml version="1.0" standalone="no"?>
<!DOCTYPE svg PUBLIC "-//W3C//DTD SVG 20010904//EN"
 "http://www.w3.org/TR/2001/REC-SVG-20010904/DTD/svg10.dtd">
<svg version="1.0" xmlns="http://www.w3.org/2000/svg"
 width="700.000000pt" height="700.000000pt" viewBox="0 0 700.000000 700.000000"
 preserveAspectRatio="xMidYMid meet">
<metadata>
Created by potrace 1.11, written by Peter Selinger 2001-2013
</metadata>
<g transform="translate(0.000000,700.000000) scale(0.100000,-0.100000)"
fill="#000000" stroke="none">
<path d="M4165 6985 c-311 -57 -570 -263 -692 -549 -28 -66 -50 -141 -58 -196
-3 -19 -8 -46 -11 -58 -7 -33 -6 -168 1 -217 32 -212 126 -386 324 -600 161
-173 194 -257 140 -349 -65 -111 -329 -204 -659 -233 -138 -12 -410 -5 -500
12 -10 2 -40 6 -67 10 -60 8 -90 13 -128 21 -16 3 -39 7 -50 9 -11 1 -42 8
-70 15 -27 6 -63 14 -80 17 -16 2 -66 14 -110 25 -44 11 -87 21 -95 23 -8 2
-53 12 -100 24 -47 11 -98 22 -115 25 -16 3 -41 8 -55 11 -87 20 -147 24 -237
17 -82 -7 -221 -244 -282 -483 -42 -165 -55 -288 -55 -509 0 -202 11 -326 50
-550 54 -319 139 -514 241 -556 83 -35 163 -2 290 119 213 204 403 319 578
351 17 3 41 8 55 11 32 8 216 7 255 0 117 -22 313 -93 323 -117 2 -4 8 -8 14
-8 48 0 252 -202 322 -318 51 -86 109 -241 121 -327 9 -64 10 -226 1 -285 -44
-293 -240 -563 -501 -689 -102 -49 -103 -49 -190 -72 -101 -27 -289 -33 -391
-14 -203 39 -335 112 -519 285 -130 122 -208 165 -295 163 -153 -4 -258 -152
-310 -433 -6 -36 -16 -85 -21 -110 -9 -47 -34 -202 -44 -280 -3 -25 -8 -56
-10 -70 -2 -14 -7 -56 -10 -95 -3 -38 -8 -83 -10 -100 -7 -53 -7 -358 0 -430
4 -38 11 -90 17 -115 5 -25 11 -52 13 -61 17 -81 66 -179 116 -228 62 -63 12
-60 1021 -61 508 -1 1576 -3 2373 -5 896 -2 1473 0 1510 6 185 30 377 135 506
278 110 122 199 313 218 469 9 71 7 3765 -2 3817 -26 157 -55 240 -100 292
-60 69 -136 80 -252 37 -38 -14 -113 -41 -165 -60 -226 -82 -435 -113 -720
-109 -213 4 -248 7 -470 44 -216 36 -337 82 -413 156 -57 56 -76 101 -73 176
3 88 38 149 160 277 85 91 206 253 206 279 0 4 7 22 16 38 19 37 60 177 69
234 8 58 9 207 1 261 -58 384 -335 685 -715 776 -86 21 -277 25 -366 9z"/>
</g>
</svg>
